<?xml version="1.0" standalone="no"?>
<!DOCTYPE svg PUBLIC "-//W3C//DTD SVG 20010904//EN"
 "http://www.w3.org/TR/2001/REC-SVG-20010904/DTD/svg10.dtd">
<svg version="1.0" xmlns="http://www.w3.org/2000/svg"
 width="256.000000pt" height="256.000000pt" viewBox="0 0 256.000000 256.000000"
 preserveAspectRatio="xMidYMid meet">
<metadata>
Created by potrace 1.14, written by Peter Selinger 2001-2017
</metadata>
<g transform="translate(0.000000,256.000000) scale(0.100000,-0.100000)"
fill="#000000" stroke="none">
<path d="M1070 2146 c-163 -36 -286 -95 -380 -182 -120 -112 -197 -266 -207
-414 -6 -93 21 -400 39 -437 17 -35 44 -41 51 -12 6 23 6 23 27 4 18 -16 23
-17 30 -5 6 8 10 28 10 43 0 36 20 118 33 135 5 6 20 12 33 12 31 0 156 37
320 94 72 25 143 46 157 46 14 0 38 10 54 23 37 30 100 48 195 54 68 5 79 3
105 -17 25 -19 35 -21 89 -15 53 5 68 3 118 -21 31 -14 67 -40 81 -56 l24 -29
7 28 c4 17 41 60 95 111 170 160 193 289 73 404 -75 72 -250 128 -397 128 -32
0 -61 7 -83 20 -75 47 -279 101 -371 99 -26 -1 -73 -7 -103 -13z"/>
<path d="M1633 1321 c-44 -20 -83 -58 -96 -94 -4 -12 -5 -18 -1 -14 4 4 12 -3
18 -15 12 -24 62 -41 110 -36 24 2 35 11 48 38 l18 35 0 -35 c0 -26 3 -31 10
-20 14 22 12 67 -5 100 -15 29 -15 30 8 30 25 0 77 -43 77 -64 0 -6 5 -3 11 6
12 21 -1 50 -33 72 -31 22 -114 20 -165 -3z m-13 -61 c0 -11 -6 -20 -14 -20
-18 0 -29 16 -21 30 11 18 35 11 35 -10z"/>
<path d="M986 1260 c-60 -24 -86 -46 -86 -77 0 -28 16 -30 30 -3 6 11 18 24
28 29 15 8 17 4 14 -39 l-4 -49 39 -10 c79 -22 143 -5 143 37 0 7 5 12 11 12
7 0 9 -10 7 -25 -6 -31 8 -23 16 10 4 14 0 41 -9 61 -8 20 -15 38 -15 40 0 12
61 -29 79 -52 16 -20 21 -23 21 -10 0 82 -152 124 -274 76z m62 -53 c4 -20
-25 -34 -40 -19 -15 15 -1 44 19 40 10 -2 19 -11 21 -21z"/>
<path d="M530 1005 c0 -2 10 -10 23 -16 20 -11 21 -11 8 4 -13 16 -31 23 -31
12z"/>
<path d="M1580 980 c-14 -11 -54 -26 -90 -34 l-65 -14 60 -1 c65 -1 125 25
125 54 0 18 1 18 -30 -5z"/>
<path d="M1705 892 c-17 -14 -98 -42 -171 -57 -74 -16 -219 -19 -297 -6 -55 9
-64 3 -36 -28 16 -16 24 -19 39 -11 10 5 56 10 102 10 46 0 123 5 171 11 92
11 154 6 127 -11 -23 -14 -2 -24 25 -12 28 13 65 67 65 95 0 18 -10 22 -25 9z"/>
<path d="M667 806 c12 -53 13 -74 4 -88 -9 -15 -8 -18 5 -18 9 0 52 -31 97
-70 147 -125 296 -181 563 -210 131 -14 213 -2 314 47 142 69 272 233 285 359
l5 49 -18 -50 c-31 -83 -62 -137 -110 -194 -95 -112 -184 -161 -330 -183 -88
-13 -235 2 -315 32 -93 36 -245 130 -294 182 -26 28 -59 60 -72 72 -13 12 -33
30 -45 41 -12 11 -34 26 -49 34 -15 8 -27 17 -27 21 0 3 -6 15 -14 26 -13 16
-12 8 1 -50z"/>
<path d="M640 730 c0 -5 5 -10 10 -10 6 0 10 5 10 10 0 6 -4 10 -10 10 -5 0
-10 -4 -10 -10z"/>
</g>
</svg>
