<?xml version="1.0" encoding="UTF-8"?>
<svg xmlns="http://www.w3.org/2000/svg" version="1.1" viewBox="0 0 485.02 214.01">
  <defs>
    <style>
      .cls-1 {
        fill: #1c223c;
      }

      .cls-2 {
        fill: #85c6e0;
      }
    </style>
  </defs>
  <!-- Generator: Adobe Illustrator 28.7.1, SVG Export Plug-In . SVG Version: 1.2.0 Build 142)  -->
  <g>
    <g id="Calque_1">
      <g id="wUjHsj.tif">
        <g>
          <path class="cls-1" d="M354.53,145.28c3.94-8.32,8.46-16.03,11.28-24.32,2.62-7.69,6.89-9.57,14.55-9.14,12.86.71,25.79.18,38.68.22,1.32,0,3.03-.65,3.45,1.61,2.74,14.95,6.72,29.76,5.09,45.2-1.94,18.38-11.81,31.35-27.67,40.06-21.89,12.02-44.87,14.54-68.07,5.1-28.77-11.71-46.84-32.89-51.56-64.18-2.5-16.56-.13-32.63,7.73-47.52,9.95-18.83,24.88-32.26,44.92-39.88,9.41-3.58,19.12-5.07,29.12-5.06,14.49,0,28.99.12,43.48-.08,3.82-.05,3.45,1.03,1.98,3.6-4.83,8.46-9.6,16.96-14.2,25.55-1.21,2.26-2.5,3.24-5.18,3.21-9.7-.1-19.39.16-29.09.18-21.36.06-40.65,18.12-44.8,39.22-4.69,23.81,9.16,48.81,32.05,55.77,15.11,4.6,30.08,4.51,43.27-6.32,2.57-2.11,3.89-4.64,4.11-7.76.29-4.24.12-8.48-.43-12.72-.29-2.25-1.19-2.68-3.27-2.66-10.77.06-21.54-.03-32.3-.07-.9,0-1.79,0-3.14,0Z"/>
          <path class="cls-1" d="M257,48.04c-4.73,10.43-9.31,20.37-13.72,30.39-.88,2-2.33,1.38-3.64,1.39-17.42.04-34.84-.05-52.26.06-9.04.06-15.34,5.95-16.18,14.73-.82,8.58,5.68,16.95,14.3,17.3,12.47.5,24.98.35,37.47.37,36.23.04,59.58,37.93,42.71,69.91-9.28,17.59-24.7,25.95-44.43,26.11-21.67.18-43.35.05-65.02.02-1.38,0-2.97.52-3.85-1.26-5.01-10.04-10.05-20.06-15.36-30.65h4.85c26.73,0,53.45,0,80.18,0,10.08,0,17.13-6.46,17.2-15.74.07-9.98-6.68-16.62-17.15-16.71-12.36-.1-24.74.18-37.09-.18-23.14-.68-42.25-18.36-45.17-41.39-3.72-29.42,18.1-54.29,47.73-54.33,21.81-.04,43.61,0,65.42,0h4.03Z"/>
          <path class="cls-1" d="M134.93,47.09c-5.4,10.81-10.43,20.83-15.38,30.9-.95,1.94-2.56,1.54-4.09,1.56-10.63.09-21.27-.02-31.89.28-22.45.64-40.45,19.52-44.01,40.07-4.14,23.87,9.14,46.72,31.87,54.94,5.17,1.87,10.56,2.5,16.04,2.5,9.31,0,18.61-.01,27.92,0,1.39,0,2.81-.36,3.71,1.44,5.05,10.02,10.21,19.98,15.31,29.91-.45.34-.63.6-.82.6-18.21,0-36.47.74-54.62-.26-21.44-1.18-39.44-10.88-53.59-26.88C3.49,157.41-1.37,128.59,10.74,98.48c11.75-29.23,34.53-46.75,66.39-50.44,18.9-2.19,37.97-.3,57.8-.95Z"/>
          <path class="cls-1" d="M479.14,47.38c0,8.51,0,16.22,0,23.92,0,42.4-.06,84.8.1,127.2.01,3.8-1.15,4.5-4.6,4.41-9.03-.23-18.08-.13-27.12-.04-1.99.02-2.61-.39-2.6-2.58.09-43.2.07-86.4.06-129.59,0-1.46-.08-2.76,1.55-3.72,10.7-6.35,21.34-12.8,32.61-19.59Z"/>
          <path class="cls-2" d="M83.24,143.03c-12.36-.64-25.11-3.79-35.62-13.38-2.18-1.99-1.93-3.18.09-4.98,8.35-7.43,18.31-11.36,29.16-12.56,12.05-1.34,23.89-.04,34.64,6.36,1.14.68,2.32,1.33,3.32,2.18,8.79,7.51,8.72,6.12-.29,13.3-8.57,6.83-19.08,8.93-31.31,9.08Z"/>
          <path class="cls-2" d="M475.85,10.93c-.01,18.51-9.78,30.47-27.19,33.61-3.11.56-3.96-.23-3.92-3.31.1-7.3.05-14.58,3.76-21.23,5.41-9.7,13.69-15.1,24.65-16.53,1.8-.23,2.81.27,2.71,2.29-.08,1.72-.02,3.45-.01,5.17Z"/>
        </g>
      </g>
    </g>
  </g>
</svg>