<?xml version="1.0" encoding="UTF-8"?>
<svg xmlns="http://www.w3.org/2000/svg" version="1.1" viewBox="0 0 512 512">
  <defs>
    <style>
      .cls-1 {
        fill: none;
      }

      .cls-2 {
        fill: #009ce0;
      }

      .cls-3 {
        fill: #003865;
      }

      .cls-4 {
        fill: #fcfcfc;
      }
    </style>
  </defs>
  <!-- Generator: Adobe Illustrator 28.7.1, SVG Export Plug-In . SVG Version: 1.2.0 Build 142)  -->
  <g>
    <g id="Calque_1">
      <g>
        <path class="cls-3" d="M239.07,488.16c.09,0,.21,0,.3-.03.58,0,1.19-.03,1.76,0h.15c.36.03.76.09,1.13.21.15.03.3.09.46.15,2.13.03,4.26.06,6.35.12,1.52.03,3.04.06,4.56.06l3.28.03c4.47,0,8.97-.15,13.38-.43.3-.09.61-.15.91-.15h.12c.43-.03.85-.03,1.28,0h.15l2.71-.18.82-.09c5.72-.76,11.4-1.46,17.12-2.25,4.01-.55,8.03-1.22,11.98-2.01.27-.03.52-.09.76-.15,16.88-3.38,33.17-8.79,48.86-15.9,1.64-.76,3.31-1.52,4.93-2.34,1.55-.73,3.07-1.49,4.59-2.25,4.59-2.28,9.09-4.71,13.47-7.33,27.52-15.93,51.23-36.82,70.76-62.79.24-.3.46-.64.67-.94,1-1.37,2.01-2.74,3.01-4.1.97-1.37,1.95-2.77,2.92-4.17.94-1.4,1.89-2.8,2.83-4.2.82-1.25,1.64-2.52,2.46-3.8,28.83-45.09,40.81-94.62,36.61-148.11-.18-2.43-.4-4.86-.64-7.27-.36-3.31-.73-6.57-1.22-9.91-3.65-26.12-11.55-50.5-23.26-73.25-.94-1.82-1.89-3.65-2.86-5.47-1.09-2.07-2.25-4.1-3.41-6.14-.97-1.7-1.98-3.38-2.98-5.02-5.47-8.82-11.52-17.36-18.15-25.66-9.37-11.71-19.76-22.35-31.17-32.17-.61,1.25.03,2.1.33,2.98,3.83,10.86,7.63,21.71,11.52,32.53,11.25,31.32,12.98,62.91,1.64,94.47-10.7,29.71-30.07,51.48-60.3,62.55-11.71,4.29-23.47,8.48-35.18,12.8-13.99,5.2-27.91,10.55-41.9,15.75-18.15,6.75-36.37,13.38-54.52,20.13-13.62,5.08-27.24,10.19-40.87,15.32-11.74,4.38-23.44,8.88-35.24,13.14-1.76.64-2.01,1.43-1.46,2.8,3.07,7.75,6.26,15.45,9.3,23.2,3.83,9.73,7.57,19.49,11.28,29.25,3.47,9.09,6.75,18.21,10.19,27.3,4.26,11.16,8.73,22.26,12.92,33.45,4.26,11.34,8.24,22.74,12.47,34.09.55,1.43,1.37,2.74,3.44,3.25.09.03.18.03.27.06,3.83.76,7.72,1.19,11.58,1.52.15.06.33.06.52.06,2.43.24,4.86.43,7.3.67.03,0,.03.03.06.03h.03c.06,0,.12.03.18.03.15,0,.3,0,.46.03l1.31.12Z"/>
        <path class="cls-2" d="M58.3,304.82c-.28,6.23,2.62,11.64,4.66,17.21,9.22,25.08,18.66,50.07,28,75.11,4.31,11.55,8.59,23.12,12.87,34.69.39,1.06,1.06,2.07.68,3.96-51.53-43.47-82.15-97.67-89.34-164.63-.61-1.43.24-3.04-.56-4.44-.08-1.69-.15-3.37-.23-5.06-.52-2.46.3-5.01-.47-7.46,0-5.45,0-10.91,0-16.36.78-2.45-.08-5,.49-7.46.07-1.68.14-3.37.2-5.05.74-1.15.06-2.5.5-3.69.56-9.02,2.26-17.86,3.98-26.71.43-2.21.95-2.77,3.16-1.21,10.79,7.62,22.66,10.88,35.47,6.4,17.01-5.94,33.78-12.53,50.68-18.78,13.98-5.17,28.01-10.2,42-15.36,9.13-3.36,18.21-6.84,27.32-10.25,13.23-4.95,26.46-9.9,39.69-14.84,14.66-5.47,29.32-10.93,43.99-16.37,16.89-6.25,33.77-12.53,50.7-18.66,6.35-2.3,12.44-.95,18.21,2.22,15.67,8.63,23.55,30.79,16.92,47.46-2.56,6.44-6.94,10.91-13.55,13.32-23.32,8.52-46.61,17.13-69.89,25.76-22.79,8.46-45.57,16.97-68.34,25.49-21.88,8.19-43.72,16.46-65.61,24.63-15.82,5.9-31.61,11.88-47.55,17.45-14.57,5.09-23.55,19.39-24.04,32.1-.48,3.5-.55,7.01.03,10.51Z"/>
        <path class="cls-4" d="M58.3,304.82c-.91-3.5-.92-7-.03-10.5.01,3.5.02,7,.03,10.5Z"/>
        <path class="cls-4" d="M13.91,254.2c.58,2.46.55,4.96.47,7.46-1.06-2.43-.36-4.97-.47-7.46Z"/>
        <path class="cls-4" d="M14.41,230.38c.04,2.5.09,5-.49,7.46.13-2.49-.62-5.04.49-7.46Z"/>
        <path class="cls-4" d="M239.07,488.16l3.8.33-.73-.18h-.03l-.82-.18h-.15c-1.34-.24-2.71-.27-4.1-.18.03,0,.03.03.06.03h.03c.06,0,.12.03.18.03.15,0,.3,0,.46.03l1.31.12Z"/>
        <path class="cls-4" d="M275.61,487.95h-.27c-1.31-.09-2.58-.03-3.86.18h-.12c-.21.03-.43.09-.64.12.67-.03,1.37-.06,2.04-.12h.15l2.71-.18Z"/>
        <path class="cls-4" d="M14.61,266.72c.69,1.42.6,2.93.56,4.44-1.1-1.36-.42-2.95-.56-4.44Z"/>
        <line class="cls-1" x1="257.07" y1="488.71" x2="253.78" y2="488.68"/>
        <path class="cls-4" d="M15.11,221.64c.09,1.26.12,2.52-.5,3.69.09-1.24-.42-2.56.5-3.69Z"/>
      </g>
      <path class="cls-1" d="M257.07,488.71c4.47,0,8.97-.15,13.38-.43.09,0,.18,0,.27-.03.67-.03,1.37-.06,2.04-.12h.15c.82-.06,1.61-.12,2.43-.18l1.09-.09c9.88-.82,19.61-2.25,29.1-4.26.27-.03.52-.09.76-.15,18.82-3.98,36.85-10.16,53.79-18.24,1.55-.73,3.07-1.49,4.59-2.25,4.59-2.31,9.06-4.74,13.47-7.33,27.82-16.33,52.09-38.07,71.42-63.73,1-1.37,2.01-2.74,3.01-4.1.97-1.37,1.95-2.77,2.92-4.17.94-1.4,1.89-2.8,2.83-4.2.82-1.25,1.64-2.52,2.46-3.8,23.63-37.46,37.31-81.85,37.31-129.44,0-6.26-.24-12.5-.7-18.67-.18-2.43-.4-4.86-.64-7.27-3.16-29.65-11.65-57.68-24.48-83.16-.94-1.82-1.89-3.65-2.86-5.47-1.09-2.07-2.25-4.1-3.41-6.14-.97-1.7-1.98-3.38-2.98-5.02C420.59,50.43,343.72,3.7,255.94,3.7,140.34,3.7,43.62,84.82,19.56,193.37c-1.79,8.12-3.22,16.42-4.2,24.87,0,.12-.03.24-.03.36,0,.09-.03.18-.03.27-.12.97-.21,1.95-.3,2.92-.03.12-.03.24-.03.4-.12.97-.21,1.95-.27,2.92v.03c-.06.58-.12,1.19-.15,1.76v.18c0,.12-.03.27-.03.4-.09,1.06-.15,2.13-.24,3.19v.03c0,.24-.03.46-.03.7-.12,2.01-.24,4.07-.27,6.11v.06s-.03.03-.03.06l.03.03c-.06.46-.06.91-.06,1.37-.09,2.37-.12,4.74-.12,7.15s.03,4.77.12,7.15c0,.33,0,.67.03,1-.03,0-.03.03-.03.03,0,0,0,.03.03.03.06,1.92.15,3.83.27,5.72v.06c0,.15.03.27.03.43,0,.24,0,.49.03.7v.03c.06,1.4.18,2.8.27,4.2.03.09.03.15.03.24.03.33.03.7.09,1.06v.03c.06.94.15,1.92.27,2.89,0,.24.03.46.06.7,0,.15,0,.3.03.46,1.67,16.6,5.02,32.69,9.88,48.1.52,1.67,1.03,3.31,1.61,4.96.64,1.89,1.28,3.74,1.95,5.59,6.14,16.72,14.02,32.57,23.47,47.34.85,1.31,1.7,2.61,2.58,3.89.33.55.7,1.09,1.06,1.61,1.09,1.58,2.19,3.13,3.28,4.68,10,14.08,21.5,27,34.27,38.62.03.03.06.06.09.06,3.65,3.38,7.45,6.6,11.31,9.7,31.96,25.66,70.57,43.39,112.81,50.17,3.92.64,7.88,1.19,11.86,1.58.15.06.33.06.52.06,2.43.27,4.9.52,7.36.7h.03c.06,0,.12.03.18.03.7.03,1.37.09,2.07.12.91.09,1.82.15,2.74.18h.03c.09,0,.18.03.27.03,2.28.12,4.53.21,6.81.27,1.52.03,3.04.06,4.56.06"/>
    </g>
  </g>
</svg>