<?xml version="1.0" encoding="UTF-8"?>
<svg xmlns="http://www.w3.org/2000/svg" version="1.1" viewBox="0 0 512 512">
  <defs>
    <style>
      .cls-1 {
        fill: #fff;
      }
    </style>
  </defs>
  <!-- Generator: Adobe Illustrator 28.7.1, SVG Export Plug-In . SVG Version: 1.2.0 Build 142)  -->
  <g>
    <g id="Calque_1">
      <g>
        <path class="cls-1" d="M756,756H-244V-244c333.33,0,666.67,0,1000,0v1000ZM260.5,629.17h6.89c53.64,0,107.29.29,160.93-.19,14.73-.13,29.66-1.47,44.13-4.2,37.45-7.06,70.04-23.95,96.46-51.78,29.43-31,44.69-68.43,49.3-110.54,6.21-56.69-10.81-105.71-50.26-146.45-59.62-61.58-147.46-68.63-216.38-30.65-48.29,26.61-78.43,67.43-87.82,122.02-3.19,18.56-3.31,37.78-3.44,56.71-.35,50.3.07,100.6.18,150.91,0,4.48,0,8.96,0,14.18ZM229.09-116.17c-2.78,0-4.74,0-6.69,0-59.83.06-119.65.29-179.48.03-13.85-.06-26.98,1.95-40.18,6.13C-85.53-82.01-148.51,12.51-122.89,110.09c15.41,58.71,49.17,103.08,106.02,126.31,55.67,22.75,110.9,17.14,163.09-11.74,43.12-23.85,70.26-60.58,79.29-109.49,5.45-29.56,6.36-59.62,6.16-89.59-.23-36.62-1.72-73.24-2.54-109.86-.23-10.44-.04-20.9-.04-31.89ZM609.31,222.76c.08-1.52.17-2.67.18-3.82.16-14.33.28-28.65.46-42.98.65-51.8,1.91-103.58-1.01-155.37-1.87-33.14-13.05-62.39-34.79-87.38-23.54-27.06-52.78-44.28-88.94-47.38-23.2-1.99-46.55-3.12-69.84-3.15-49.48-.07-98.95.83-148.43,1.34-.79,0-1.57.18-2.32.27,1.23,196,159.12,342.87,344.68,338.47ZM-118,288.45c0,1.98,0,3.14,0,4.29,0,60.48-.13,120.95.07,181.43.06,19.59,3.19,38.85,10.01,57.27,19.72,53.24,57.23,85.48,113.98,92.45,27.68,3.4,55.77,4.52,83.68,4.68,41.61.23,83.23-1.29,124.84-2.1,4.42-.09,8.84-.38,13.47-.58,0-2.27.05-4.08,0-5.89-1.64-54.04-14.91-105.23-41.49-152.13-58.59-103.37-144.41-167.58-265.21-179.25-12.82-1.24-25.86-.17-39.35-.17Z"/>
        <path d="M260.5,629.17c0-5.22,0-9.7,0-14.18-.11-50.3-.52-100.61-.18-150.91.13-18.93.25-38.15,3.44-56.71,9.39-54.59,39.53-95.42,87.82-122.02,68.92-37.97,156.75-30.93,216.38,30.65,39.45,40.75,56.47,89.76,50.26,146.45-4.61,42.12-19.88,79.55-49.3,110.54-26.42,27.83-59.01,44.72-96.46,51.78-14.47,2.73-29.4,4.07-44.13,4.2-53.64.48-107.29.19-160.93.19h-6.89Z"/>
        <path d="M229.09-116.17c0,10.99-.2,21.44.04,31.89.82,36.62,2.31,73.24,2.54,109.86.19,29.97-.71,60.03-6.16,89.59-9.02,48.91-36.17,85.64-79.29,109.49-52.19,28.87-107.42,34.48-163.09,11.74-56.85-23.23-90.6-67.6-106.02-126.31C-148.51,12.51-85.53-82.01,2.74-110c13.2-4.19,26.34-6.19,40.18-6.13,59.82.26,119.65.02,179.48-.03,1.95,0,3.91,0,6.69,0Z"/>
        <path d="M609.31,222.76c-185.56,4.4-343.45-142.47-344.68-338.47.75-.09,1.53-.26,2.32-.27,49.48-.51,98.95-1.41,148.43-1.34,23.29.03,46.64,1.16,69.84,3.15,36.16,3.11,65.4,20.32,88.94,47.38,21.74,24.99,32.92,54.24,34.79,87.38,2.92,51.79,1.66,103.57,1.01,155.37-.18,14.33-.3,28.65-.46,42.98-.01,1.15-.11,2.3-.18,3.82Z"/>
        <path d="M-118,288.45c13.5,0,26.54-1.07,39.35.17,120.8,11.67,206.62,75.87,265.21,179.25,26.59,46.91,39.85,98.1,41.49,152.13.05,1.81,0,3.62,0,5.89-4.62.21-9.04.5-13.47.58-41.61.81-83.23,2.33-124.84,2.1-27.92-.16-56-1.28-83.68-4.68-56.75-6.96-94.26-39.2-113.98-92.45-6.82-18.42-9.95-37.68-10.01-57.27-.2-60.47-.07-120.95-.07-181.43,0-1.16,0-2.31,0-4.29Z"/>
      </g>
    </g>
  </g>
</svg>